<svg width="64" height="64" viewBox="0 0 64 64" fill="none" xmlns="http://www.w3.org/2000/svg">
  <!-- Background circle with gradient -->
  <defs>
    <linearGradient id="bgGradient" x1="0%" y1="0%" x2="100%" y2="100%">
      <stop offset="0%" style="stop-color:#6366f1;stop-opacity:1" />
      <stop offset="100%" style="stop-color:#8b5cf6;stop-opacity:1" />
    </linearGradient>
    <linearGradient id="iconGradient" x1="0%" y1="0%" x2="100%" y2="100%">
      <stop offset="0%" style="stop-color:#ffffff;stop-opacity:1" />
      <stop offset="100%" style="stop-color:#e0e7ff;stop-opacity:1" />
    </linearGradient>
  </defs>
  
  <!-- Background circle -->
  <circle cx="32" cy="32" r="30" fill="url(#bgGradient)" stroke="#ffffff" stroke-width="2"/>
  
  <!-- Grid pattern representing virtual land -->
  <g fill="url(#iconGradient)" opacity="0.8">
    <!-- Main grid lines -->
    <rect x="16" y="20" width="2" height="24" rx="1"/>
    <rect x="28" y="20" width="2" height="24" rx="1"/>
    <rect x="40" y="20" width="2" height="24" rx="1"/>
    <rect x="20" y="16" width="24" height="2" rx="1"/>
    <rect x="20" y="28" width="24" height="2" rx="1"/>
    <rect x="20" y="40" width="24" height="2" rx="1"/>
    
    <!-- Land plot indicators -->
    <circle cx="22" cy="22" r="2" fill="#10b981"/>
    <circle cx="34" cy="22" r="2" fill="#f59e0b"/>
    <circle cx="46" cy="22" r="2" fill="#ef4444"/>
    <circle cx="22" cy="34" r="2" fill="#8b5cf6"/>
    <circle cx="34" cy="34" r="2" fill="#06b6d4"/>
    <circle cx="46" cy="34" r="2" fill="#84cc16"/>
    <circle cx="22" cy="46" r="2" fill="#f97316"/>
    <circle cx="34" cy="46" r="2" fill="#ec4899"/>
    <circle cx="46" cy="46" r="2" fill="#6366f1"/>
  </g>
  
  <!-- Encryption lock overlay -->
  <g transform="translate(32, 32)">
    <circle cx="0" cy="-8" r="6" fill="none" stroke="url(#iconGradient)" stroke-width="2"/>
    <rect x="-2" y="-2" width="4" height="6" fill="url(#iconGradient)" rx="1"/>
  </g>
</svg>
